<svg width="512" height="512" viewBox="0 0 512 512" fill="none" xmlns="http://www.w3.org/2000/svg">
  <!-- Background Circle with Gradient -->
  <circle cx="256" cy="256" r="256" fill="url(#gradient1)"/>
  
  <!-- Outer Glow Circles -->
  <circle cx="256" cy="256" r="200" fill="white" opacity="0.1"/>
  <circle cx="256" cy="256" r="180" fill="white" opacity="0.15"/>
  <circle cx="256" cy="256" r="155" fill="white" opacity="0.2"/>
  
  <!-- Main Checkmark -->
  <path d="M186 256L230 300L326 204" stroke="white" stroke-width="32" stroke-linecap="round" stroke-linejoin="round"/>
  
  <!-- Circular Progress Indicator (3/4 circle) -->
  <path d="M256 75 A181 181 0 1 1 75 256" stroke="white" stroke-width="20" stroke-linecap="round" opacity="0.4" fill="none"/>
  
  <!-- Streak Flame Icon (top right) -->
  <g transform="translate(360, 110)">
    <path d="M0 55C0 55 -22 32 -22 16C-22 0 -11 -11 0 -11C11 -11 22 0 22 16C22 32 0 55 0 55Z" fill="#FFD700" opacity="0.95"/>
    <path d="M0 45C0 45 -14 28 -14 16C-14 6 -6 0 0 0C6 0 14 6 14 16C14 28 0 45 0 45Z" fill="#FFF" opacity="0.85"/>
    <ellipse cx="0" cy="20" rx="6" ry="8" fill="#FFF" opacity="0.6"/>
  </g>
  
  <!-- Small Habit Dots (representing daily routine) -->
  <circle cx="140" cy="140" r="8" fill="white" opacity="0.6"/>
  <circle cx="372" cy="372" r="8" fill="white" opacity="0.6"/>
  <circle cx="140" cy="372" r="8" fill="white" opacity="0.6"/>
  
  <!-- Gradient Definition -->
  <defs>
    <linearGradient id="gradient1" x1="0%" y1="0%" x2="100%" y2="100%">
      <stop offset="0%" style="stop-color:#6366F1;stop-opacity:1" />
      <stop offset="50%" style="stop-color:#8B5CF6;stop-opacity:1" />
      <stop offset="100%" style="stop-color:#EC4899;stop-opacity:1" />
    </linearGradient>
  </defs>
</svg>
